STARTFONT 2.1
FONT -FontForge-Syncopate-Book-R-Normal--12-120-72-72-P-89-ISO10646-1
SIZE 12 72 72
FONTBOUNDINGBOX 21 14 -2 -3
COMMENT "Generated by fontforge, http://fontforge.sourceforge.net"
COMMENT "Copyright (c) 2010 by Brian J. Bonislawsky DBA Astigmatic (AOETI). All rights reserved. Available under the Apache 2.0 licence.http://www.apache.org/licenses/LICENSE-2.0.html"
STARTPROPERTIES 39
FOUNDRY "FontForge"
FAMILY_NAME "Syncopate"
WEIGHT_NAME "Book"
SLANT "R"
SETWIDTH_NAME "Normal"
ADD_STYLE_NAME ""
PIXEL_SIZE 12
POINT_SIZE 120
RESOLUTION_X 72
RESOLUTION_Y 72
SPACING "P"
AVERAGE_WIDTH 89
CHARSET_REGISTRY "ISO10646"
CHARSET_ENCODING "1"
FONTNAME_REGISTRY ""
CHARSET_COLLECTIONS "ISO8859-2 ISO8859-9 ISO8859-4 ISO10646-1"
FONT_NAME "Syncopate-Regular"
FACE_NAME "Syncopate Regular"
COPYRIGHT "Copyright (c) 2010 by Brian J. Bonislawsky DBA Astigmatic (AOETI). All rights reserved. Available under the Apache 2.0 licence.http://www.apache.org/licenses/LICENSE-2.0.html"
FONT_VERSION "001.001"
FONT_ASCENT 10
FONT_DESCENT 2
UNDERLINE_POSITION -1
UNDERLINE_THICKNESS 1
X_HEIGHT 7
CAP_HEIGHT 7
RAW_ASCENT 799
RAW_DESCENT 200
NORM_SPACE 5
RELATIVE_WEIGHT 40
RELATIVE_SETWIDTH 70
SUPERSCRIPT_X 0
SUPERSCRIPT_Y 3
SUPERSCRIPT_SIZE 2
SUBSCRIPT_X 0
SUBSCRIPT_Y 3
SUBSCRIPT_SIZE 2
AVG_LOWERCASE_WIDTH 102
AVG_UPPERCASE_WIDTH 98
ENDPROPERTIES
CHARS 370
STARTCHAR space
ENCODING 32
SWIDTH 375 0
DWIDTH 5 0
BBX 1 1 0 0
BITMAP
00
ENDCHAR
STARTCHAR exclam
ENCODING 33
SWIDTH 274 0
DWIDTH 3 0
BBX 1 8 1 0
BITMAP
80
80
80
80
80
80
00
80
ENDCHAR
STARTCHAR quotedbl
ENCODING 34
SWIDTH 290 0
DWIDTH 3 0
BBX 3 2 0 6
BITMAP
A0
A0
ENDCHAR
STARTCHAR numbersign
ENCODING 35
SWIDTH 701 0
DWIDTH 8 0
BBX 8 8 1 0
BITMAP
12
24
7F
24
24
FE
48
48
ENDCHAR
STARTCHAR dollar
ENCODING 36
SWIDTH 767 0
DWIDTH 9 0
BBX 7 10 1 -1
BITMAP
10
7C
90
90
70
1C
12
12
FC
10
ENDCHAR
STARTCHAR percent
ENCODING 37
SWIDTH 992 0
DWIDTH 12 0
BBX 11 8 0 0
BITMAP
7080
8900
8A00
7400
05C0
0A20
1220
21C0
ENDCHAR
STARTCHAR ampersand
ENCODING 38
SWIDTH 926 0
DWIDTH 11 0
BBX 10 8 1 0
BITMAP
3800
4400
4800
3000
5080
8C80
8300
7CC0
ENDCHAR
STARTCHAR quotesingle
ENCODING 39
SWIDTH 140 0
DWIDTH 2 0
BBX 1 2 0 6
BITMAP
80
80
ENDCHAR
STARTCHAR parenleft
ENCODING 40
SWIDTH 420 0
DWIDTH 5 0
BBX 3 10 1 -1
BITMAP
20
40
40
80
80
80
80
40
40
20
ENDCHAR
STARTCHAR parenright
ENCODING 41
SWIDTH 420 0
DWIDTH 5 0
BBX 3 10 1 -1
BITMAP
80
40
40
20
20
20
20
40
40
80
ENDCHAR
STARTCHAR asterisk
ENCODING 42
SWIDTH 503 0
DWIDTH 6 0
BBX 5 5 1 3
BITMAP
20
A8
70
F8
20
ENDCHAR
STARTCHAR plus
ENCODING 43
SWIDTH 634 0
DWIDTH 8 0
BBX 5 7 2 1
BITMAP
20
20
20
F8
20
20
20
ENDCHAR
STARTCHAR comma
ENCODING 44
SWIDTH 185 0
DWIDTH 2 0
BBX 1 2 0 -1
BITMAP
80
80
ENDCHAR
STARTCHAR hyphen
ENCODING 45
SWIDTH 540 0
DWIDTH 6 0
BBX 5 1 1 4
BITMAP
F8
ENDCHAR
STARTCHAR period
ENCODING 46
SWIDTH 185 0
DWIDTH 2 0
BBX 1 1 1 0
BITMAP
80
ENDCHAR
STARTCHAR slash
ENCODING 47
SWIDTH 500 0
DWIDTH 6 0
BBX 5 8 1 0
BITMAP
08
10
10
20
20
40
40
80
ENDCHAR
STARTCHAR zero
ENCODING 48
SWIDTH 833 0
DWIDTH 10 0
BBX 9 8 1 0
BITMAP
3E00
4100
8080
8080
8080
8080
4100
3E00
ENDCHAR
STARTCHAR one
ENCODING 49
SWIDTH 339 0
DWIDTH 4 0
BBX 3 8 0 0
BITMAP
E0
20
20
20
20
20
20
20
ENDCHAR
STARTCHAR two
ENCODING 50
SWIDTH 728 0
DWIDTH 9 0
BBX 7 8 1 0
BITMAP
7C
82
02
02
04
18
60
FE
ENDCHAR
STARTCHAR three
ENCODING 51
SWIDTH 726 0
DWIDTH 9 0
BBX 7 8 1 0
BITMAP
FC
02
02
3C
06
02
02
FC
ENDCHAR
STARTCHAR four
ENCODING 52
SWIDTH 769 0
DWIDTH 9 0
BBX 8 8 1 0
BITMAP
0C
14
24
44
44
FF
04
04
ENDCHAR
STARTCHAR five
ENCODING 53
SWIDTH 738 0
DWIDTH 9 0
BBX 7 8 1 0
BITMAP
FC
80
80
FC
02
02
02
FC
ENDCHAR
STARTCHAR six
ENCODING 54
SWIDTH 772 0
DWIDTH 9 0
BBX 8 8 1 0
BITMAP
3E
40
80
BC
C2
81
42
3C
ENDCHAR
STARTCHAR seven
ENCODING 55
SWIDTH 669 0
DWIDTH 8 0
BBX 8 8 0 0
BITMAP
FF
02
02
04
08
08
10
20
ENDCHAR
STARTCHAR eight
ENCODING 56
SWIDTH 793 0
DWIDTH 10 0
BBX 8 8 1 0
BITMAP
3C
42
42
3C
66
81
81
7E
ENDCHAR
STARTCHAR nine
ENCODING 57
SWIDTH 776 0
DWIDTH 9 0
BBX 8 8 1 0
BITMAP
3C
42
81
43
3D
01
02
7C
ENDCHAR
STARTCHAR colon
ENCODING 58
SWIDTH 245 0
DWIDTH 3 0
BBX 1 6 1 0
BITMAP
80
00
00
00
00
80
ENDCHAR
STARTCHAR semicolon
ENCODING 59
SWIDTH 234 0
DWIDTH 3 0
BBX 1 7 1 -1
BITMAP
80
00
00
00
00
80
80
ENDCHAR
STARTCHAR less
ENCODING 60
SWIDTH 634 0
DWIDTH 8 0
BBX 6 7 1 1
BITMAP
04
18
60
80
60
18
04
ENDCHAR
STARTCHAR equal
ENCODING 61
SWIDTH 634 0
DWIDTH 8 0
BBX 6 3 1 3
BITMAP
FC
00
FC
ENDCHAR
STARTCHAR greater
ENCODING 62
SWIDTH 634 0
DWIDTH 8 0
BBX 6 7 1 1
BITMAP
80
60
18
04
18
60
80
ENDCHAR
STARTCHAR question
ENCODING 63
SWIDTH 568 0
DWIDTH 7 0
BBX 5 8 1 0
BITMAP
F0
08
08
10
60
40
00
40
ENDCHAR
STARTCHAR at
ENCODING 64
SWIDTH 1016 0
DWIDTH 12 0
BBX 10 8 1 0
BITMAP
1F00
2080
4F40
9140
9240
8D80
4000
3F00
ENDCHAR
STARTCHAR A
ENCODING 65
SWIDTH 812 0
DWIDTH 10 0
BBX 9 8 0 0
BITMAP
0800
1400
1400
2200
2200
7F00
4100
8080
ENDCHAR
STARTCHAR B
ENCODING 66
SWIDTH 836 0
DWIDTH 10 0
BBX 8 8 1 0
BITMAP
FC
82
82
FC
82
81
81
FE
ENDCHAR
STARTCHAR C
ENCODING 67
SWIDTH 869 0
DWIDTH 10 0
BBX 8 8 1 0
BITMAP
3E
41
80
80
80
80
41
3E
ENDCHAR
STARTCHAR D
ENCODING 68
SWIDTH 910 0
DWIDTH 11 0
BBX 9 8 1 0
BITMAP
FE00
8100
8080
8080
8080
8080
8100
FE00
ENDCHAR
STARTCHAR E
ENCODING 69
SWIDTH 754 0
DWIDTH 9 0
BBX 7 8 1 0
BITMAP
FE
80
80
FE
80
80
80
FE
ENDCHAR
STARTCHAR F
ENCODING 70
SWIDTH 687 0
DWIDTH 8 0
BBX 6 8 2 0
BITMAP
FC
80
80
FC
80
80
80
80
ENDCHAR
STARTCHAR G
ENCODING 71
SWIDTH 910 0
DWIDTH 11 0
BBX 9 8 1 0
BITMAP
3F00
4080
8000
8000
8780
8080
4080
3F80
ENDCHAR
STARTCHAR H
ENCODING 72
SWIDTH 949 0
DWIDTH 11 0
BBX 9 8 1 0
BITMAP
8080
8080
8080
FF80
8080
8080
8080
8080
ENDCHAR
STARTCHAR I
ENCODING 73
SWIDTH 287 0
DWIDTH 3 0
BBX 1 8 1 0
BITMAP
80
80
80
80
80
80
80
80
ENDCHAR
STARTCHAR J
ENCODING 74
SWIDTH 590 0
DWIDTH 7 0
BBX 6 8 0 0
BITMAP
04
04
04
04
04
04
04
F8
ENDCHAR
STARTCHAR K
ENCODING 75
SWIDTH 806 0
DWIDTH 10 0
BBX 8 8 1 0
BITMAP
83
8C
90
E0
A0
98
84
83
ENDCHAR
STARTCHAR L
ENCODING 76
SWIDTH 701 0
DWIDTH 8 0
BBX 7 8 1 0
BITMAP
80
80
80
80
80
80
80
FE
ENDCHAR
STARTCHAR M
ENCODING 77
SWIDTH 1139 0
DWIDTH 14 0
BBX 11 8 1 0
BITMAP
8020
C060
A0A0
A0A0
9120
8A20
8A20
8420
ENDCHAR
STARTCHAR N
ENCODING 78
SWIDTH 936 0
DWIDTH 11 0
BBX 9 8 1 0
BITMAP
8080
C080
A080
9880
8480
8280
8180
8080
ENDCHAR
STARTCHAR O
ENCODING 79
SWIDTH 983 0
DWIDTH 12 0
BBX 10 8 1 0
BITMAP
3F00
4080
8040
8040
8040
8040
4080
3F00
ENDCHAR
STARTCHAR P
ENCODING 80
SWIDTH 818 0
DWIDTH 10 0
BBX 8 8 1 0
BITMAP
FE
81
81
81
FE
80
80
80
ENDCHAR
STARTCHAR Q
ENCODING 81
SWIDTH 983 0
DWIDTH 12 0
BBX 11 8 1 0
BITMAP
3F00
4080
8040
8040
8040
8440
4380
3F60
ENDCHAR
STARTCHAR R
ENCODING 82
SWIDTH 833 0
DWIDTH 10 0
BBX 7 8 2 0
BITMAP
FC
82
82
82
FC
88
84
82
ENDCHAR
STARTCHAR S
ENCODING 83
SWIDTH 787 0
DWIDTH 9 0
BBX 7 8 1 0
BITMAP
7C
80
80
70
0C
02
02
FC
ENDCHAR
STARTCHAR T
ENCODING 84
SWIDTH 708 0
DWIDTH 9 0
BBX 9 8 0 0
BITMAP
FF80
0800
0800
0800
0800
0800
0800
0800
ENDCHAR
STARTCHAR U
ENCODING 85
SWIDTH 891 0
DWIDTH 11 0
BBX 8 8 1 0
BITMAP
81
81
81
81
81
81
42
3C
ENDCHAR
STARTCHAR V
ENCODING 86
SWIDTH 817 0
DWIDTH 10 0
BBX 9 8 0 0
BITMAP
8080
4100
4100
2200
2200
1400
1400
0800
ENDCHAR
STARTCHAR W
ENCODING 87
SWIDTH 1266 0
DWIDTH 15 0
BBX 13 8 1 0
BITMAP
8208
8508
4510
4510
2890
28A0
28A0
1040
ENDCHAR
STARTCHAR X
ENCODING 88
SWIDTH 821 0
DWIDTH 10 0
BBX 7 8 1 0
BITMAP
82
44
28
10
28
28
44
82
ENDCHAR
STARTCHAR Y
ENCODING 89
SWIDTH 763 0
DWIDTH 9 0
BBX 7 8 1 0
BITMAP
82
44
44
28
10
10
10
10
ENDCHAR
STARTCHAR Z
ENCODING 90
SWIDTH 728 0
DWIDTH 9 0
BBX 7 8 1 0
BITMAP
FE
04
08
10
20
20
40
FE
ENDCHAR
STARTCHAR bracketleft
ENCODING 91
SWIDTH 409 0
DWIDTH 5 0
BBX 3 10 2 -1
BITMAP
E0
80
80
80
80
80
80
80
80
E0
ENDCHAR
STARTCHAR backslash
ENCODING 92
SWIDTH 500 0
DWIDTH 6 0
BBX 5 8 1 0
BITMAP
80
40
40
20
20
10
10
08
ENDCHAR
STARTCHAR bracketright
ENCODING 93
SWIDTH 409 0
DWIDTH 5 0
BBX 3 10 0 -1
BITMAP
E0
20
20
20
20
20
20
20
20
E0
ENDCHAR
STARTCHAR asciicircum
ENCODING 94
SWIDTH 459 0
DWIDTH 6 0
BBX 5 3 0 5
BITMAP
20
50
88
ENDCHAR
STARTCHAR underscore
ENCODING 95
SWIDTH 500 0
DWIDTH 6 0
BBX 6 1 0 -2
BITMAP
FC
ENDCHAR
STARTCHAR grave
ENCODING 96
SWIDTH 527 0
DWIDTH 6 0
BBX 3 2 1 7
BITMAP
80
60
ENDCHAR
STARTCHAR a
ENCODING 97
SWIDTH 888 0
DWIDTH 11 0
BBX 9 8 1 0
BITMAP
7F00
0080
0080
1F80
6080
8080
8180
7E80
ENDCHAR
STARTCHAR b
ENCODING 98
SWIDTH 836 0
DWIDTH 10 0
BBX 8 8 1 0
BITMAP
FC
82
82
FC
82
81
81
FE
ENDCHAR
STARTCHAR c
ENCODING 99
SWIDTH 869 0
DWIDTH 10 0
BBX 8 8 1 0
BITMAP
3E
41
80
80
80
80
41
3E
ENDCHAR
STARTCHAR d
ENCODING 100
SWIDTH 910 0
DWIDTH 11 0
BBX 9 8 1 0
BITMAP
FE00
8100
8080
8080
8080
8080
8100
FE00
ENDCHAR
STARTCHAR e
ENCODING 101
SWIDTH 910 0
DWIDTH 11 0
BBX 9 8 1 0
BITMAP
3E00
4100
8080
FF80
8000
8000
4000
3F00
ENDCHAR
STARTCHAR f
ENCODING 102
SWIDTH 817 0
DWIDTH 10 0
BBX 8 8 1 0
BITMAP
7F
80
80
80
FF
80
80
80
ENDCHAR
STARTCHAR g
ENCODING 103
SWIDTH 910 0
DWIDTH 11 0
BBX 9 8 1 0
BITMAP
3F00
4080
8000
8000
8780
8080
4080
3F80
ENDCHAR
STARTCHAR h
ENCODING 104
SWIDTH 949 0
DWIDTH 11 0
BBX 9 8 1 0
BITMAP
8080
8080
8080
FF80
8080
8080
8080
8080
ENDCHAR
STARTCHAR i
ENCODING 105
SWIDTH 287 0
DWIDTH 3 0
BBX 1 8 1 0
BITMAP
80
80
80
80
80
80
80
80
ENDCHAR
STARTCHAR j
ENCODING 106
SWIDTH 590 0
DWIDTH 7 0
BBX 6 8 0 0
BITMAP
04
04
04
04
04
04
04
F8
ENDCHAR
STARTCHAR k
ENCODING 107
SWIDTH 867 0
DWIDTH 10 0
BBX 8 8 1 0
BITMAP
81
82
84
F8
84
82
81
81
ENDCHAR
STARTCHAR l
ENCODING 108
SWIDTH 709 0
DWIDTH 9 0
BBX 7 8 1 0
BITMAP
80
80
80
80
80
80
80
7E
ENDCHAR
STARTCHAR m
ENCODING 109
SWIDTH 1246 0
DWIDTH 15 0
BBX 13 8 1 0
BITMAP
BCF0
C308
8208
8208
8208
8208
8208
8208
ENDCHAR
STARTCHAR n
ENCODING 110
SWIDTH 933 0
DWIDTH 11 0
BBX 9 8 1 0
BITMAP
9F00
E080
8080
8080
8080
8080
8080
8080
ENDCHAR
STARTCHAR o
ENCODING 111
SWIDTH 983 0
DWIDTH 12 0
BBX 10 8 1 0
BITMAP
3F00
4080
8040
8040
8040
8040
4080
3F00
ENDCHAR
STARTCHAR p
ENCODING 112
SWIDTH 818 0
DWIDTH 10 0
BBX 8 8 1 0
BITMAP
FE
81
81
81
FE
80
80
80
ENDCHAR
STARTCHAR q
ENCODING 113
SWIDTH 983 0
DWIDTH 12 0
BBX 11 8 1 0
BITMAP
3F00
4080
8040
8040
8040
8040
4080
3FE0
ENDCHAR
STARTCHAR r
ENCODING 114
SWIDTH 609 0
DWIDTH 7 0
BBX 6 8 1 0
BITMAP
9C
E0
80
80
80
80
80
80
ENDCHAR
STARTCHAR s
ENCODING 115
SWIDTH 787 0
DWIDTH 9 0
BBX 7 8 1 0
BITMAP
7C
80
80
70
0C
02
02
FC
ENDCHAR
STARTCHAR t
ENCODING 116
SWIDTH 708 0
DWIDTH 9 0
BBX 9 8 0 0
BITMAP
FF80
0800
0800
0800
0800
0800
0800
0800
ENDCHAR
STARTCHAR u
ENCODING 117
SWIDTH 931 0
DWIDTH 11 0
BBX 9 8 1 0
BITMAP
8080
8080
8080
8080
8080
8080
8380
7C80
ENDCHAR
STARTCHAR v
ENCODING 118
SWIDTH 817 0
DWIDTH 10 0
BBX 9 8 0 0
BITMAP
8080
4100
4100
2200
2200
1400
1400
0800
ENDCHAR
STARTCHAR w
ENCODING 119
SWIDTH 1266 0
DWIDTH 15 0
BBX 13 8 1 0
BITMAP
8208
8508
4510
4510
2890
28A0
28A0
1040
ENDCHAR
STARTCHAR x
ENCODING 120
SWIDTH 821 0
DWIDTH 10 0
BBX 7 8 1 0
BITMAP
82
44
28
10
28
28
44
82
ENDCHAR
STARTCHAR y
ENCODING 121
SWIDTH 911 0
DWIDTH 11 0
BBX 9 8 1 0
BITMAP
8080
8080
8080
4380
3C80
0080
0100
FE00
ENDCHAR
STARTCHAR z
ENCODING 122
SWIDTH 728 0
DWIDTH 9 0
BBX 7 8 1 0
BITMAP
FE
04
08
10
20
20
40
FE
ENDCHAR
STARTCHAR braceleft
ENCODING 123
SWIDTH 386 0
DWIDTH 5 0
BBX 3 10 1 -1
BITMAP
20
40
40
40
40
80
40
40
40
20
ENDCHAR
STARTCHAR bar
ENCODING 124
SWIDTH 259 0
DWIDTH 3 0
BBX 1 12 1 -3
BITMAP
80
80
80
80
80
80
80
80
80
80
80
80
ENDCHAR
STARTCHAR braceright
ENCODING 125
SWIDTH 386 0
DWIDTH 5 0
BBX 3 10 1 -1
BITMAP
80
40
40
40
40
20
40
40
40
80
ENDCHAR
STARTCHAR asciitilde
ENCODING 126
SWIDTH 634 0
DWIDTH 8 0
BBX 6 2 1 3
BITMAP
64
98
ENDCHAR
STARTCHAR nonbreakingspace
ENCODING 160
SWIDTH 375 0
DWIDTH 5 0
BBX 1 1 0 0
BITMAP
00
ENDCHAR
STARTCHAR exclamdown
ENCODING 161
SWIDTH 274 0
DWIDTH 3 0
BBX 1 8 1 0
BITMAP
80
00
80
80
80
80
80
80
ENDCHAR
STARTCHAR cent
ENCODING 162
SWIDTH 736 0
DWIDTH 9 0
BBX 8 9 0 -1
BITMAP
08
3E
49
88
88
88
49
3E
08
ENDCHAR
STARTCHAR sterling
ENCODING 163
SWIDTH 792 0
DWIDTH 10 0
BBX 8 8 1 0
BITMAP
0F
10
20
20
FC
20
20
FF
ENDCHAR
STARTCHAR currency
ENCODING 164
SWIDTH 560 0
DWIDTH 7 0
BBX 4 4 1 2
BITMAP
F0
90
90
F0
ENDCHAR
STARTCHAR yen
ENCODING 165
SWIDTH 811 0
DWIDTH 10 0
BBX 9 8 1 0
BITMAP
C180
2200
1400
7700
0800
7F00
0800
0800
ENDCHAR
STARTCHAR brokenbar
ENCODING 166
SWIDTH 259 0
DWIDTH 3 0
BBX 1 10 1 -2
BITMAP
80
80
80
80
00
00
80
80
80
80
ENDCHAR
STARTCHAR section
ENCODING 167
SWIDTH 500 0
DWIDTH 6 0
BBX 4 8 1 0
BITMAP
70
80
E0
90
90
70
10
E0
ENDCHAR
STARTCHAR dieresis
ENCODING 168
SWIDTH 527 0
DWIDTH 6 0
BBX 3 1 2 7
BITMAP
A0
ENDCHAR
STARTCHAR copyright
ENCODING 169
SWIDTH 770 0
DWIDTH 9 0
BBX 8 8 1 0
BITMAP
3C
42
9D
A1
A1
9D
42
3C
ENDCHAR
STARTCHAR ordfeminine
ENCODING 170
SWIDTH 497 0
DWIDTH 6 0
BBX 5 6 0 2
BITMAP
F0
78
88
78
00
F8
ENDCHAR
STARTCHAR guillemotleft
ENCODING 171
SWIDTH 440 0
DWIDTH 5 0
BBX 4 5 0 2
BITMAP
50
50
A0
50
50
ENDCHAR
STARTCHAR logicalnot
ENCODING 172
SWIDTH 634 0
DWIDTH 8 0
BBX 6 3 1 3
BITMAP
FC
04
04
ENDCHAR
STARTCHAR uni00AD
ENCODING 173
SWIDTH 540 0
DWIDTH 6 0
BBX 5 1 1 4
BITMAP
F8
ENDCHAR
STARTCHAR registered
ENCODING 174
SWIDTH 600 0
DWIDTH 7 0
BBX 6 6 1 2
BITMAP
78
B4
B4
B4
84
78
ENDCHAR
STARTCHAR macron
ENCODING 175
SWIDTH 527 0
DWIDTH 6 0
BBX 3 1 2 7
BITMAP
E0
ENDCHAR
STARTCHAR degree
ENCODING 176
SWIDTH 373 0
DWIDTH 4 0
BBX 3 3 1 5
BITMAP
40
A0
40
ENDCHAR
STARTCHAR plusminus
ENCODING 177
SWIDTH 634 0
DWIDTH 8 0
BBX 5 7 2 0
BITMAP
20
20
F8
20
20
00
F8
ENDCHAR
STARTCHAR twosuperior
ENCODING 178
SWIDTH 511 0
DWIDTH 6 0
BBX 5 5 0 3
BITMAP
F0
08
08
30
F8
ENDCHAR
STARTCHAR threesuperior
ENCODING 179
SWIDTH 512 0
DWIDTH 6 0
BBX 5 5 0 3
BITMAP
F0
08
30
08
F0
ENDCHAR
STARTCHAR acute
ENCODING 180
SWIDTH 527 0
DWIDTH 6 0
BBX 3 2 2 7
BITMAP
20
C0
ENDCHAR
STARTCHAR micro
ENCODING 181
SWIDTH 705 0
DWIDTH 8 0
BBX 7 8 0 -2
BITMAP
22
22
42
44
64
5C
40
80
ENDCHAR
STARTCHAR paragraph
ENCODING 182
SWIDTH 585 0
DWIDTH 7 0
BBX 5 8 1 0
BITMAP
78
E8
E8
E8
68
28
28
28
ENDCHAR
STARTCHAR periodcentered
ENCODING 183
SWIDTH 185 0
DWIDTH 2 0
BBX 1 1 1 3
BITMAP
80
ENDCHAR
STARTCHAR cedilla
ENCODING 184
SWIDTH 527 0
DWIDTH 6 0
BBX 2 2 3 -2
BITMAP
40
C0
ENDCHAR
STARTCHAR onesuperior
ENCODING 185
SWIDTH 261 0
DWIDTH 3 0
BBX 2 5 0 3
BITMAP
C0
40
40
40
40
ENDCHAR
STARTCHAR ordmasculine
ENCODING 186
SWIDTH 520 0
DWIDTH 6 0
BBX 6 6 0 2
BITMAP
78
84
84
78
00
FC
ENDCHAR
STARTCHAR guillemotright
ENCODING 187
SWIDTH 440 0
DWIDTH 5 0
BBX 4 5 1 2
BITMAP
A0
A0
50
A0
A0
ENDCHAR
STARTCHAR onequarter
ENCODING 188
SWIDTH 857 0
DWIDTH 10 0
BBX 10 8 0 0
BITMAP
C100
4200
4400
4800
0980
1280
27C0
4080
ENDCHAR
STARTCHAR onehalf
ENCODING 189
SWIDTH 937 0
DWIDTH 11 0
BBX 10 8 0 0
BITMAP
C100
4200
4400
4800
0B80
1040
2080
43C0
ENDCHAR
STARTCHAR threequarters
ENCODING 190
SWIDTH 978 0
DWIDTH 12 0
BBX 10 8 1 0
BITMAP
F080
6100
1200
E400
0580
0A80
17C0
2080
ENDCHAR
STARTCHAR questiondown
ENCODING 191
SWIDTH 568 0
DWIDTH 7 0
BBX 5 8 1 0
BITMAP
10
00
10
30
40
80
80
78
ENDCHAR
STARTCHAR Agrave
ENCODING 192
SWIDTH 812 0
DWIDTH 10 0
BBX 9 11 0 0
BITMAP
1000
0C00
0000
0800
1400
1400
2200
2200
7F00
4100
8080
ENDCHAR
STARTCHAR Aacute
ENCODING 193
SWIDTH 812 0
DWIDTH 10 0
BBX 9 11 0 0
BITMAP
0600
0800
0000
0800
1400
1400
2200
2200
7F00
4100
8080
ENDCHAR
STARTCHAR Acircumflex
ENCODING 194
SWIDTH 812 0
DWIDTH 10 0
BBX 9 11 0 0
BITMAP
1800
2600
0000
0800
1400
1400
2200
2200
7F00
4100
8080
ENDCHAR
STARTCHAR Atilde
ENCODING 195
SWIDTH 812 0
DWIDTH 10 0
BBX 9 11 0 0
BITMAP
1A00
1400
0000
0800
1400
1400
2200
2200
7F00
4100
8080
ENDCHAR
STARTCHAR Adieresis
ENCODING 196
SWIDTH 812 0
DWIDTH 10 0
BBX 9 10 0 0
BITMAP
1400
0000
0800
1400
1400
2200
2200
7F00
4100
8080
ENDCHAR
STARTCHAR Aring
ENCODING 197
SWIDTH 812 0
DWIDTH 10 0
BBX 9 11 0 0
BITMAP
1C00
1C00
0000
0800
1400
1400
2200
2200
7F00
4100
8080
ENDCHAR
STARTCHAR AE
ENCODING 198
SWIDTH 1172 0
DWIDTH 14 0
BBX 13 8 0 0
BITMAP
07F8
0A00
1200
13F8
2200
7E00
4200
83F8
ENDCHAR
STARTCHAR Ccedilla
ENCODING 199
SWIDTH 869 0
DWIDTH 10 0
BBX 8 10 1 -2
BITMAP
3E
41
80
80
80
80
41
3E
04
0C
ENDCHAR
STARTCHAR Egrave
ENCODING 200
SWIDTH 754 0
DWIDTH 9 0
BBX 7 11 1 0
BITMAP
20
50
00
FE
80
80
FE
80
80
80
FE
ENDCHAR
STARTCHAR Eacute
ENCODING 201
SWIDTH 754 0
DWIDTH 9 0
BBX 7 11 1 0
BITMAP
08
30
00
FE
80
80
FE
80
80
80
FE
ENDCHAR
STARTCHAR Ecircumflex
ENCODING 202
SWIDTH 754 0
DWIDTH 9 0
BBX 7 11 1 0
BITMAP
18
24
40
FE
80
80
FE
80
80
80
FE
ENDCHAR
STARTCHAR Edieresis
ENCODING 203
SWIDTH 754 0
DWIDTH 9 0
BBX 7 10 1 0
BITMAP
28
00
FE
80
80
FE
80
80
80
FE
ENDCHAR
STARTCHAR Igrave
ENCODING 204
SWIDTH 287 0
DWIDTH 3 0
BBX 3 11 0 0
BITMAP
80
60
00
40
40
40
40
40
40
40
40
ENDCHAR
STARTCHAR Iacute
ENCODING 205
SWIDTH 287 0
DWIDTH 3 0
BBX 3 11 1 0
BITMAP
40
A0
00
80
80
80
80
80
80
80
80
ENDCHAR
STARTCHAR Icircumflex
ENCODING 206
SWIDTH 287 0
DWIDTH 3 0
BBX 5 11 -1 0
BITMAP
60
90
08
20
20
20
20
20
20
20
20
ENDCHAR
STARTCHAR Idieresis
ENCODING 207
SWIDTH 287 0
DWIDTH 3 0
BBX 3 10 0 0
BITMAP
A0
00
40
40
40
40
40
40
40
40
ENDCHAR
STARTCHAR Eth
ENCODING 208
SWIDTH 910 0
DWIDTH 11 0
BBX 10 8 0 0
BITMAP
7F00
4080
4040
F840
4040
4040
4080
7F00
ENDCHAR
STARTCHAR Ntilde
ENCODING 209
SWIDTH 936 0
DWIDTH 11 0
BBX 9 11 1 0
BITMAP
0A00
0E00
1000
8080
C080
A080
9880
8480
8280
8180
8080
ENDCHAR
STARTCHAR Ograve
ENCODING 210
SWIDTH 983 0
DWIDTH 12 0
BBX 10 11 1 0
BITMAP
1000
0C00
0000
3F00
4080
8040
8040
8040
8040
4080
3F00
ENDCHAR
STARTCHAR Oacute
ENCODING 211
SWIDTH 983 0
DWIDTH 12 0
BBX 10 11 1 0
BITMAP
0200
0C00
0000
3F00
4080
8040
8040
8040
8040
4080
3F00
ENDCHAR
STARTCHAR Ocircumflex
ENCODING 212
SWIDTH 983 0
DWIDTH 12 0
BBX 10 11 1 0
BITMAP
0C00
1300
0000
3F00
4080
8040
8040
8040
8040
4080
3F00
ENDCHAR
STARTCHAR Otilde
ENCODING 213
SWIDTH 983 0
DWIDTH 12 0
BBX 10 11 1 0
BITMAP
1A00
1400
0000
3F00
4080
8040
8040
8040
8040
4080
3F00
ENDCHAR
STARTCHAR Odieresis
ENCODING 214
SWIDTH 983 0
DWIDTH 12 0
BBX 10 10 1 0
BITMAP
0A00
0000
3F00
4080
8040
8040
8040
8040
4080
3F00
ENDCHAR
STARTCHAR multiply
ENCODING 215
SWIDTH 634 0
DWIDTH 8 0
BBX 5 5 1 2
BITMAP
88
50
20
50
88
ENDCHAR
STARTCHAR Oslash
ENCODING 216
SWIDTH 983 0
DWIDTH 12 0
BBX 10 10 1 -1
BITMAP
0080
3F00
4280
8240
8440
8840
9040
6080
3F00
4000
ENDCHAR
STARTCHAR Ugrave
ENCODING 217
SWIDTH 891 0
DWIDTH 11 0
BBX 8 11 1 0
BITMAP
20
18
00
81
81
81
81
81
81
42
3C
ENDCHAR
STARTCHAR Uacute
ENCODING 218
SWIDTH 891 0
DWIDTH 11 0
BBX 8 11 1 0
BITMAP
04
18
00
81
81
81
81
81
81
42
3C
ENDCHAR
STARTCHAR Ucircumflex
ENCODING 219
SWIDTH 891 0
DWIDTH 11 0
BBX 8 11 1 0
BITMAP
08
36
00
81
81
81
81
81
81
42
3C
ENDCHAR
STARTCHAR Udieresis
ENCODING 220
SWIDTH 891 0
DWIDTH 11 0
BBX 8 10 1 0
BITMAP
14
00
81
81
81
81
81
81
42
3C
ENDCHAR
STARTCHAR Yacute
ENCODING 221
SWIDTH 763 0
DWIDTH 9 0
BBX 7 11 1 0
BITMAP
08
30
00
82
44
44
28
10
10
10
10
ENDCHAR
STARTCHAR Thorn
ENCODING 222
SWIDTH 787 0
DWIDTH 9 0
BBX 7 8 1 0
BITMAP
80
FC
82
82
82
FC
80
80
ENDCHAR
STARTCHAR germandbls
ENCODING 223
SWIDTH 863 0
DWIDTH 10 0
BBX 9 8 1 0
BITMAP
3E00
4100
8100
9E00
8100
8080
8080
BF00
ENDCHAR
STARTCHAR agrave
ENCODING 224
SWIDTH 888 0
DWIDTH 11 0
BBX 9 11 1 0
BITMAP
1000
0C00
0000
7F00
0080
0080
1F80
6080
8080
8180
7E80
ENDCHAR
STARTCHAR aacute
ENCODING 225
SWIDTH 888 0
DWIDTH 11 0
BBX 9 11 1 0
BITMAP
0400
1800
0000
7F00
0080
0080
1F80
6080
8080
8180
7E80
ENDCHAR
STARTCHAR acircumflex
ENCODING 226
SWIDTH 888 0
DWIDTH 11 0
BBX 9 11 1 0
BITMAP
0800
3600
0000
7F00
0080
0080
1F80
6080
8080
8180
7E80
ENDCHAR
STARTCHAR atilde
ENCODING 227
SWIDTH 888 0
DWIDTH 11 0
BBX 9 11 1 0
BITMAP
0A00
1600
0000
7F00
0080
0080
1F80
6080
8080
8180
7E80
ENDCHAR
STARTCHAR adieresis
ENCODING 228
SWIDTH 888 0
DWIDTH 11 0
BBX 9 10 1 0
BITMAP
1400
0000
7F00
0080
0080
1F80
6080
8080
8180
7E80
ENDCHAR
STARTCHAR aring
ENCODING 229
SWIDTH 888 0
DWIDTH 11 0
BBX 9 11 1 0
BITMAP
1C00
1C00
0000
7F00
0080
0080
1F80
6080
8080
8180
7E80
ENDCHAR
STARTCHAR ae
ENCODING 230
SWIDTH 1551 0
DWIDTH 19 0
BBX 17 8 1 0
BITMAP
7F3E00
00C100
008080
1FFF80
608000
808000
81C000
7E3F00
ENDCHAR
STARTCHAR ccedilla
ENCODING 231
SWIDTH 869 0
DWIDTH 10 0
BBX 8 10 1 -2
BITMAP
3E
41
80
80
80
80
41
3E
04
0C
ENDCHAR
STARTCHAR egrave
ENCODING 232
SWIDTH 910 0
DWIDTH 11 0
BBX 9 11 1 0
BITMAP
1800
0400
0000
3E00
4100
8080
FF80
8000
8000
4000
3F00
ENDCHAR
STARTCHAR eacute
ENCODING 233
SWIDTH 910 0
DWIDTH 11 0
BBX 9 11 1 0
BITMAP
0400
1800
0000
3E00
4100
8080
FF80
8000
8000
4000
3F00
ENDCHAR
STARTCHAR ecircumflex
ENCODING 234
SWIDTH 910 0
DWIDTH 11 0
BBX 9 11 1 0
BITMAP
0C00
3200
0000
3E00
4100
8080
FF80
8000
8000
4000
3F00
ENDCHAR
STARTCHAR edieresis
ENCODING 235
SWIDTH 910 0
DWIDTH 11 0
BBX 9 10 1 0
BITMAP
1400
0000
3E00
4100
8080
FF80
8000
8000
4000
3F00
ENDCHAR
STARTCHAR igrave
ENCODING 236
SWIDTH 287 0
DWIDTH 3 0
BBX 3 11 0 0
BITMAP
80
60
00
40
40
40
40
40
40
40
40
ENDCHAR
STARTCHAR iacute
ENCODING 237
SWIDTH 287 0
DWIDTH 3 0
BBX 3 11 1 0
BITMAP
40
A0
00
80
80
80
80
80
80
80
80
ENDCHAR
STARTCHAR icircumflex
ENCODING 238
SWIDTH 287 0
DWIDTH 3 0
BBX 5 11 -1 0
BITMAP
60
90
08
20
20
20
20
20
20
20
20
ENDCHAR
STARTCHAR idieresis
ENCODING 239
SWIDTH 287 0
DWIDTH 3 0
BBX 3 10 0 0
BITMAP
A0
00
40
40
40
40
40
40
40
40
ENDCHAR
STARTCHAR eth
ENCODING 240
SWIDTH 910 0
DWIDTH 11 0
BBX 10 8 0 0
BITMAP
7F00
4080
4040
F840
4040
4040
4080
7F00
ENDCHAR
STARTCHAR ntilde
ENCODING 241
SWIDTH 933 0
DWIDTH 11 0
BBX 9 11 1 0
BITMAP
1400
2C00
0000
9F00
E080
8080
8080
8080
8080
8080
8080
ENDCHAR
STARTCHAR ograve
ENCODING 242
SWIDTH 983 0
DWIDTH 12 0
BBX 10 11 1 0
BITMAP
1000
0C00
0000
3F00
4080
8040
8040
8040
8040
4080
3F00
ENDCHAR
STARTCHAR oacute
ENCODING 243
SWIDTH 983 0
DWIDTH 12 0
BBX 10 11 1 0
BITMAP
0200
0C00
0000
3F00
4080
8040
8040
8040
8040
4080
3F00
ENDCHAR
STARTCHAR ocircumflex
ENCODING 244
SWIDTH 983 0
DWIDTH 12 0
BBX 10 11 1 0
BITMAP
0C00
1300
0000
3F00
4080
8040
8040
8040
8040
4080
3F00
ENDCHAR
STARTCHAR otilde
ENCODING 245
SWIDTH 983 0
DWIDTH 12 0
BBX 10 11 1 0
BITMAP
1A00
1400
0000
3F00
4080
8040
8040
8040
8040
4080
3F00
ENDCHAR
STARTCHAR odieresis
ENCODING 246
SWIDTH 983 0
DWIDTH 12 0
BBX 10 10 1 0
BITMAP
0A00
0000
3F00
4080
8040
8040
8040
8040
4080
3F00
ENDCHAR
STARTCHAR divide
ENCODING 247
SWIDTH 634 0
DWIDTH 8 0
BBX 5 5 1 2
BITMAP
20
00
F8
00
20
ENDCHAR
STARTCHAR oslash
ENCODING 248
SWIDTH 983 0
DWIDTH 12 0
BBX 10 10 1 -1
BITMAP
0080
3F00
4280
8240
8440
8840
9040
6080
3F00
4000
ENDCHAR
STARTCHAR ugrave
ENCODING 249
SWIDTH 931 0
DWIDTH 11 0
BBX 9 11 1 0
BITMAP
0800
1400
0000
8080
8080
8080
8080
8080
8080
8380
7C80
ENDCHAR
STARTCHAR uacute
ENCODING 250
SWIDTH 931 0
DWIDTH 11 0
BBX 9 11 1 0
BITMAP
0400
1800
0000
8080
8080
8080
8080
8080
8080
8380
7C80
ENDCHAR
STARTCHAR ucircumflex
ENCODING 251
SWIDTH 931 0
DWIDTH 11 0
BBX 9 11 1 0
BITMAP
0C00
1200
2000
8080
8080
8080
8080
8080
8080
8380
7C80
ENDCHAR
STARTCHAR udieresis
ENCODING 252
SWIDTH 931 0
DWIDTH 11 0
BBX 9 10 1 0
BITMAP
1400
0000
8080
8080
8080
8080
8080
8080
8380
7C80
ENDCHAR
STARTCHAR yacute
ENCODING 253
SWIDTH 911 0
DWIDTH 11 0
BBX 9 11 1 0
BITMAP
0400
1800
0000
8080
8080
8080
4380
3C80
0080
0100
FE00
ENDCHAR
STARTCHAR thorn
ENCODING 254
SWIDTH 787 0
DWIDTH 9 0
BBX 7 8 1 0
BITMAP
80
FC
82
82
82
FC
80
80
ENDCHAR
STARTCHAR ydieresis
ENCODING 255
SWIDTH 911 0
DWIDTH 11 0
BBX 9 10 1 0
BITMAP
1400
0000
8080
8080
8080
4380
3C80
0080
0100
FE00
ENDCHAR
STARTCHAR Amacron
ENCODING 256
SWIDTH 812 0
DWIDTH 10 0
BBX 9 10 0 0
BITMAP
1C00
0000
0800
1400
1400
2200
2200
7F00
4100
8080
ENDCHAR
STARTCHAR amacron
ENCODING 257
SWIDTH 888 0
DWIDTH 11 0
BBX 9 10 1 0
BITMAP
1C00
0000
7F00
0080
0080
1F80
6080
8080
8180
7E80
ENDCHAR
STARTCHAR Abreve
ENCODING 258
SWIDTH 812 0
DWIDTH 10 0
BBX 9 11 0 0
BITMAP
1200
1C00
0000
0800
1400
1400
2200
2200
7F00
4100
8080
ENDCHAR
STARTCHAR abreve
ENCODING 259
SWIDTH 888 0
DWIDTH 11 0
BBX 9 11 1 0
BITMAP
1200
0C00
0000
7F00
0080
0080
1F80
6080
8080
8180
7E80
ENDCHAR
STARTCHAR Aogonek
ENCODING 260
SWIDTH 812 0
DWIDTH 10 0
BBX 10 10 0 -2
BITMAP
0800
1400
1400
2200
2200
7F00
4100
8080
0100
01C0
ENDCHAR
STARTCHAR aogonek
ENCODING 261
SWIDTH 888 0
DWIDTH 11 0
BBX 10 10 1 -2
BITMAP
7F00
0080
0080
1F80
6080
8080
8180
7E80
0100
01C0
ENDCHAR
STARTCHAR Cacute
ENCODING 262
SWIDTH 869 0
DWIDTH 10 0
BBX 8 11 1 0
BITMAP
06
08
00
3E
41
80
80
80
80
41
3E
ENDCHAR
STARTCHAR cacute
ENCODING 263
SWIDTH 869 0
DWIDTH 10 0
BBX 8 11 1 0
BITMAP
06
08
00
3E
41
80
80
80
80
41
3E
ENDCHAR
STARTCHAR Ccircumflex
ENCODING 264
SWIDTH 869 0
DWIDTH 10 0
BBX 8 11 1 0
BITMAP
18
26
00
3E
41
80
80
80
80
41
3E
ENDCHAR
STARTCHAR ccircumflex
ENCODING 265
SWIDTH 869 0
DWIDTH 10 0
BBX 8 11 1 0
BITMAP
18
26
00
3E
41
80
80
80
80
41
3E
ENDCHAR
STARTCHAR Cdotaccent
ENCODING 266
SWIDTH 869 0
DWIDTH 10 0
BBX 8 10 1 0
BITMAP
08
00
3E
41
80
80
80
80
41
3E
ENDCHAR
STARTCHAR cdotaccent
ENCODING 267
SWIDTH 869 0
DWIDTH 10 0
BBX 8 10 1 0
BITMAP
08
00
3E
41
80
80
80
80
41
3E
ENDCHAR
STARTCHAR Ccaron
ENCODING 268
SWIDTH 869 0
DWIDTH 10 0
BBX 8 11 1 0
BITMAP
22
1C
00
3E
41
80
80
80
80
41
3E
ENDCHAR
STARTCHAR ccaron
ENCODING 269
SWIDTH 869 0
DWIDTH 10 0
BBX 8 11 1 0
BITMAP
22
1C
00
3E
41
80
80
80
80
41
3E
ENDCHAR
STARTCHAR Dcaron
ENCODING 270
SWIDTH 910 0
DWIDTH 11 0
BBX 9 11 1 0
BITMAP
6400
1800
0000
FE00
8100
8080
8080
8080
8080
8100
FE00
ENDCHAR
STARTCHAR dcaron
ENCODING 271
SWIDTH 910 0
DWIDTH 11 0
BBX 9 11 1 0
BITMAP
6400
1800
0000
FE00
8100
8080
8080
8080
8080
8100
FE00
ENDCHAR
STARTCHAR Dcroat
ENCODING 272
SWIDTH 910 0
DWIDTH 11 0
BBX 10 8 0 0
BITMAP
7F00
4080
4040
F840
4040
4040
4080
7F00
ENDCHAR
STARTCHAR dcroat
ENCODING 273
SWIDTH 910 0
DWIDTH 11 0
BBX 10 8 0 0
BITMAP
7F00
4080
4040
F840
4040
4040
4080
7F00
ENDCHAR
STARTCHAR Emacron
ENCODING 274
SWIDTH 754 0
DWIDTH 9 0
BBX 7 10 1 0
BITMAP
38
00
FE
80
80
FE
80
80
80
FE
ENDCHAR
STARTCHAR emacron
ENCODING 275
SWIDTH 910 0
DWIDTH 11 0
BBX 9 10 1 0
BITMAP
1C00
0000
3E00
4100
8080
FF80
8000
8000
4000
3F00
ENDCHAR
STARTCHAR Ebreve
ENCODING 276
SWIDTH 754 0
DWIDTH 9 0
BBX 7 11 1 0
BITMAP
34
1C
00
FE
80
80
FE
80
80
80
FE
ENDCHAR
STARTCHAR ebreve
ENCODING 277
SWIDTH 910 0
DWIDTH 11 0
BBX 9 11 1 0
BITMAP
2400
1C00
0000
3E00
4100
8080
FF80
8000
8000
4000
3F00
ENDCHAR
STARTCHAR Edotaccent
ENCODING 278
SWIDTH 754 0
DWIDTH 9 0
BBX 7 10 1 0
BITMAP
10
00
FE
80
80
FE
80
80
80
FE
ENDCHAR
STARTCHAR edotaccent
ENCODING 279
SWIDTH 910 0
DWIDTH 11 0
BBX 9 10 1 0
BITMAP
0800
0000
3E00
4100
8080
FF80
8000
8000
4000
3F00
ENDCHAR
STARTCHAR Eogonek
ENCODING 280
SWIDTH 754 0
DWIDTH 9 0
BBX 7 10 1 -2
BITMAP
FE
80
80
FE
80
80
80
FE
08
0E
ENDCHAR
STARTCHAR eogonek
ENCODING 281
SWIDTH 910 0
DWIDTH 11 0
BBX 9 10 1 -2
BITMAP
3E00
4100
8080
FF80
8000
8000
4000
3F00
0200
0380
ENDCHAR
STARTCHAR Ecaron
ENCODING 282
SWIDTH 754 0
DWIDTH 9 0
BBX 7 11 1 0
BITMAP
64
18
00
FE
80
80
FE
80
80
80
FE
ENDCHAR
STARTCHAR ecaron
ENCODING 283
SWIDTH 910 0
DWIDTH 11 0
BBX 9 11 1 0
BITMAP
2200
1C00
0000
3E00
4100
8080
FF80
8000
8000
4000
3F00
ENDCHAR
STARTCHAR Gcircumflex
ENCODING 284
SWIDTH 910 0
DWIDTH 11 0
BBX 9 11 1 0
BITMAP
0C00
1300
0000
3F00
4080
8000
8000
8780
8080
4080
3F80
ENDCHAR
STARTCHAR gcircumflex
ENCODING 285
SWIDTH 910 0
DWIDTH 11 0
BBX 9 11 1 0
BITMAP
0C00
1300
0000
3F00
4080
8000
8000
8780
8080
4080
3F80
ENDCHAR
STARTCHAR Gbreve
ENCODING 286
SWIDTH 910 0
DWIDTH 11 0
BBX 9 11 1 0
BITMAP
1200
1C00
0000
3F00
4080
8000
8000
8780
8080
4080
3F80
ENDCHAR
STARTCHAR gbreve
ENCODING 287
SWIDTH 910 0
DWIDTH 11 0
BBX 9 11 1 0
BITMAP
1200
1C00
0000
3F00
4080
8000
8000
8780
8080
4080
3F80
ENDCHAR
STARTCHAR Gdotaccent
ENCODING 288
SWIDTH 910 0
DWIDTH 11 0
BBX 9 10 1 0
BITMAP
0400
0000
3F00
4080
8000
8000
8780
8080
4080
3F80
ENDCHAR
STARTCHAR gdotaccent
ENCODING 289
SWIDTH 910 0
DWIDTH 11 0
BBX 9 10 1 0
BITMAP
0400
0000
3F00
4080
8000
8000
8780
8080
4080
3F80
ENDCHAR
STARTCHAR Gcommaaccent
ENCODING 290
SWIDTH 910 0
DWIDTH 11 0
BBX 9 11 1 -3
BITMAP
3F00
4080
8000
8000
8780
8080
4080
3F80
0000
0400
0400
ENDCHAR
STARTCHAR gcommaaccent
ENCODING 291
SWIDTH 910 0
DWIDTH 11 0
BBX 9 11 1 -3
BITMAP
3F00
4080
8000
8000
8780
8080
4080
3F80
0000
0400
0400
ENDCHAR
STARTCHAR Hcircumflex
ENCODING 292
SWIDTH 949 0
DWIDTH 11 0
BBX 9 11 1 0
BITMAP
1800
2400
0200
8080
8080
8080
FF80
8080
8080
8080
8080
ENDCHAR
STARTCHAR hcircumflex
ENCODING 293
SWIDTH 949 0
DWIDTH 11 0
BBX 9 11 1 0
BITMAP
1800
2400
0200
8080
8080
8080
FF80
8080
8080
8080
8080
ENDCHAR
STARTCHAR Hbar
ENCODING 294
SWIDTH 949 0
DWIDTH 11 0
BBX 11 8 0 0
BITMAP
4040
FFE0
4040
7FC0
4040
4040
4040
4040
ENDCHAR
STARTCHAR hbar
ENCODING 295
SWIDTH 949 0
DWIDTH 11 0
BBX 11 8 0 0
BITMAP
4040
FFE0
4040
7FC0
4040
4040
4040
4040
ENDCHAR
STARTCHAR Itilde
ENCODING 296
SWIDTH 287 0
DWIDTH 3 0
BBX 4 11 0 0
BITMAP
90
E0
00
40
40
40
40
40
40
40
40
ENDCHAR
STARTCHAR itilde
ENCODING 297
SWIDTH 287 0
DWIDTH 3 0
BBX 4 11 0 0
BITMAP
90
E0
00
40
40
40
40
40
40
40
40
ENDCHAR
STARTCHAR Imacron
ENCODING 298
SWIDTH 287 0
DWIDTH 3 0
BBX 3 10 0 0
BITMAP
E0
00
40
40
40
40
40
40
40
40
ENDCHAR
STARTCHAR imacron
ENCODING 299
SWIDTH 287 0
DWIDTH 3 0
BBX 3 10 0 0
BITMAP
E0
00
40
40
40
40
40
40
40
40
ENDCHAR
STARTCHAR Ibreve
ENCODING 300
SWIDTH 287 0
DWIDTH 3 0
BBX 4 11 0 0
BITMAP
B0
E0
00
40
40
40
40
40
40
40
40
ENDCHAR
STARTCHAR ibreve
ENCODING 301
SWIDTH 287 0
DWIDTH 3 0
BBX 4 11 0 0
BITMAP
B0
E0
00
40
40
40
40
40
40
40
40
ENDCHAR
STARTCHAR Iogonek
ENCODING 302
SWIDTH 287 0
DWIDTH 3 0
BBX 3 10 0 -2
BITMAP
40
40
40
40
40
40
40
40
80
E0
ENDCHAR
STARTCHAR iogonek
ENCODING 303
SWIDTH 287 0
DWIDTH 3 0
BBX 3 10 0 -2
BITMAP
40
40
40
40
40
40
40
40
80
E0
ENDCHAR
STARTCHAR Idotaccent
ENCODING 304
SWIDTH 287 0
DWIDTH 3 0
BBX 1 10 1 0
BITMAP
80
00
80
80
80
80
80
80
80
80
ENDCHAR
STARTCHAR dotlessi
ENCODING 305
SWIDTH 287 0
DWIDTH 3 0
BBX 1 8 1 0
BITMAP
80
80
80
80
80
80
80
80
ENDCHAR
STARTCHAR IJ
ENCODING 306
SWIDTH 877 0
DWIDTH 11 0
BBX 8 8 1 0
BITMAP
81
81
81
81
81
81
81
BE
ENDCHAR
STARTCHAR ij
ENCODING 307
SWIDTH 877 0
DWIDTH 11 0
BBX 8 8 1 0
BITMAP
81
81
81
81
81
81
81
BE
ENDCHAR
STARTCHAR Jcircumflex
ENCODING 308
SWIDTH 590 0
DWIDTH 7 0
BBX 8 11 0 0
BITMAP
06
19
00
04
04
04
04
04
04
04
F8
ENDCHAR
STARTCHAR jcircumflex
ENCODING 309
SWIDTH 590 0
DWIDTH 7 0
BBX 8 11 0 0
BITMAP
06
19
00
04
04
04
04
04
04
04
F8
ENDCHAR
STARTCHAR Kcommaaccent
ENCODING 310
SWIDTH 806 0
DWIDTH 10 0
BBX 8 11 1 -3
BITMAP
83
8C
90
E0
A0
98
84
83
00
08
10
ENDCHAR
STARTCHAR kcommaaccent
ENCODING 311
SWIDTH 867 0
DWIDTH 10 0
BBX 8 11 1 -3
BITMAP
81
82
84
F8
84
82
81
81
00
08
08
ENDCHAR
STARTCHAR kgreenlandic
ENCODING 312
SWIDTH 867 0
DWIDTH 10 0
BBX 8 8 1 0
BITMAP
81
82
84
F8
84
82
81
81
ENDCHAR
STARTCHAR Lacute
ENCODING 313
SWIDTH 701 0
DWIDTH 8 0
BBX 7 11 1 0
BITMAP
40
A0
00
80
80
80
80
80
80
80
FE
ENDCHAR
STARTCHAR lacute
ENCODING 314
SWIDTH 709 0
DWIDTH 9 0
BBX 7 11 1 0
BITMAP
40
A0
00
80
80
80
80
80
80
80
7E
ENDCHAR
STARTCHAR Lcommaaccent
ENCODING 315
SWIDTH 701 0
DWIDTH 8 0
BBX 7 11 1 -3
BITMAP
80
80
80
80
80
80
80
FE
00
18
10
ENDCHAR
STARTCHAR lcommaaccent
ENCODING 316
SWIDTH 709 0
DWIDTH 9 0
BBX 7 11 1 -3
BITMAP
80
80
80
80
80
80
80
7E
00
08
10
ENDCHAR
STARTCHAR Lcaron
ENCODING 317
SWIDTH 701 0
DWIDTH 8 0
BBX 7 8 1 0
BITMAP
88
90
80
80
80
80
80
FE
ENDCHAR
STARTCHAR lcaron
ENCODING 318
SWIDTH 709 0
DWIDTH 9 0
BBX 7 8 1 0
BITMAP
88
90
80
80
80
80
80
7E
ENDCHAR
STARTCHAR Ldot
ENCODING 319
SWIDTH 701 0
DWIDTH 8 0
BBX 7 8 1 0
BITMAP
80
80
80
88
80
80
80
FE
ENDCHAR
STARTCHAR ldotaccent
ENCODING 320
SWIDTH 709 0
DWIDTH 9 0
BBX 7 8 1 0
BITMAP
80
80
80
88
80
80
80
7E
ENDCHAR
STARTCHAR Lslash
ENCODING 321
SWIDTH 701 0
DWIDTH 8 0
BBX 8 8 0 0
BITMAP
40
40
40
50
E0
40
40
7F
ENDCHAR
STARTCHAR lslash
ENCODING 322
SWIDTH 709 0
DWIDTH 9 0
BBX 8 8 0 0
BITMAP
40
40
40
50
E0
40
40
3F
ENDCHAR
STARTCHAR Nacute
ENCODING 323
SWIDTH 936 0
DWIDTH 11 0
BBX 9 11 1 0
BITMAP
0200
0C00
0000
8080
C080
A080
9880
8480
8280
8180
8080
ENDCHAR
STARTCHAR nacute
ENCODING 324
SWIDTH 933 0
DWIDTH 11 0
BBX 9 11 1 0
BITMAP
0200
0C00
0000
9F00
E080
8080
8080
8080
8080
8080
8080
ENDCHAR
STARTCHAR Ncommaaccent
ENCODING 325
SWIDTH 936 0
DWIDTH 11 0
BBX 9 11 1 -3
BITMAP
8080
C080
A080
9880
8480
8280
8180
8080
0000
0800
0800
ENDCHAR
STARTCHAR ncommaaccent
ENCODING 326
SWIDTH 933 0
DWIDTH 11 0
BBX 9 11 1 -3
BITMAP
9F00
E080
8080
8080
8080
8080
8080
8080
0000
0800
0800
ENDCHAR
STARTCHAR Ncaron
ENCODING 327
SWIDTH 936 0
DWIDTH 11 0
BBX 9 11 1 0
BITMAP
3200
0C00
0000
8080
C080
A080
9880
8480
8280
8180
8080
ENDCHAR
STARTCHAR ncaron
ENCODING 328
SWIDTH 933 0
DWIDTH 11 0
BBX 9 11 1 0
BITMAP
2200
1C00
0000
9F00
E080
8080
8080
8080
8080
8080
8080
ENDCHAR
STARTCHAR napostrophe
ENCODING 329
SWIDTH 1025 0
DWIDTH 12 0
BBX 11 8 0 0
BITMAP
A7C0
B820
2020
2020
2020
2020
2020
2020
ENDCHAR
STARTCHAR Eng
ENCODING 330
SWIDTH 936 0
DWIDTH 11 0
BBX 9 8 1 0
BITMAP
C080
A080
9080
8C80
8280
8180
8080
9F00
ENDCHAR
STARTCHAR eng
ENCODING 331
SWIDTH 933 0
DWIDTH 11 0
BBX 9 8 1 0
BITMAP
9F00
E080
8080
8080
8080
8080
8080
8F00
ENDCHAR
STARTCHAR Omacron
ENCODING 332
SWIDTH 983 0
DWIDTH 12 0
BBX 10 10 1 0
BITMAP
0E00
0000
3F00
4080
8040
8040
8040
8040
4080
3F00
ENDCHAR
STARTCHAR omacron
ENCODING 333
SWIDTH 983 0
DWIDTH 12 0
BBX 10 10 1 0
BITMAP
0E00
0000
3F00
4080
8040
8040
8040
8040
4080
3F00
ENDCHAR
STARTCHAR Obreve
ENCODING 334
SWIDTH 983 0
DWIDTH 12 0
BBX 10 11 1 0
BITMAP
1200
1C00
0000
3F00
4080
8040
8040
8040
8040
4080
3F00
ENDCHAR
STARTCHAR obreve
ENCODING 335
SWIDTH 983 0
DWIDTH 12 0
BBX 10 11 1 0
BITMAP
1200
1C00
0000
3F00
4080
8040
8040
8040
8040
4080
3F00
ENDCHAR
STARTCHAR Ohungarumlaut
ENCODING 336
SWIDTH 983 0
DWIDTH 12 0
BBX 10 11 1 0
BITMAP
0500
0A00
0000
3F00
4080
8040
8040
8040
8040
4080
3F00
ENDCHAR
STARTCHAR ohungarumlaut
ENCODING 337
SWIDTH 983 0
DWIDTH 12 0
BBX 10 11 1 0
BITMAP
0500
0A00
0000
3F00
4080
8040
8040
8040
8040
4080
3F00
ENDCHAR
STARTCHAR OE
ENCODING 338
SWIDTH 1338 0
DWIDTH 16 0
BBX 14 8 1 0
BITMAP
3FFC
4100
8100
81FC
8100
8100
4100
3FFC
ENDCHAR
STARTCHAR oe
ENCODING 339
SWIDTH 1688 0
DWIDTH 20 0
BBX 18 8 1 0
BITMAP
3F1F00
40A080
804040
807FC0
804000
804000
40A000
3F1F80
ENDCHAR
STARTCHAR Racute
ENCODING 340
SWIDTH 833 0
DWIDTH 10 0
BBX 7 11 2 0
BITMAP
08
30
00
FC
82
82
82
FC
88
84
82
ENDCHAR
STARTCHAR racute
ENCODING 341
SWIDTH 609 0
DWIDTH 7 0
BBX 6 11 1 0
BITMAP
08
30
00
9C
E0
80
80
80
80
80
80
ENDCHAR
STARTCHAR Rcommaaccent
ENCODING 342
SWIDTH 833 0
DWIDTH 10 0
BBX 7 11 2 -3
BITMAP
FC
82
82
82
FC
88
84
82
00
10
20
ENDCHAR
STARTCHAR rcommaaccent
ENCODING 343
SWIDTH 609 0
DWIDTH 7 0
BBX 6 11 1 -3
BITMAP
9C
E0
80
80
80
80
80
80
00
80
80
ENDCHAR
STARTCHAR Rcaron
ENCODING 344
SWIDTH 833 0
DWIDTH 10 0
BBX 7 11 2 0
BITMAP
64
18
00
FC
82
82
82
FC
88
84
82
ENDCHAR
STARTCHAR rcaron
ENCODING 345
SWIDTH 609 0
DWIDTH 7 0
BBX 6 11 1 0
BITMAP
44
38
00
9C
E0
80
80
80
80
80
80
ENDCHAR
STARTCHAR Sacute
ENCODING 346
SWIDTH 787 0
DWIDTH 9 0
BBX 7 11 1 0
BITMAP
08
30
00
7C
80
80
70
0C
02
02
FC
ENDCHAR
STARTCHAR sacute
ENCODING 347
SWIDTH 787 0
DWIDTH 9 0
BBX 7 11 1 0
BITMAP
08
30
00
7C
80
80
70
0C
02
02
FC
ENDCHAR
STARTCHAR Scircumflex
ENCODING 348
SWIDTH 787 0
DWIDTH 9 0
BBX 7 11 1 0
BITMAP
18
24
40
7C
80
80
70
0C
02
02
FC
ENDCHAR
STARTCHAR scircumflex
ENCODING 349
SWIDTH 787 0
DWIDTH 9 0
BBX 7 11 1 0
BITMAP
18
24
40
7C
80
80
70
0C
02
02
FC
ENDCHAR
STARTCHAR Scedilla
ENCODING 350
SWIDTH 787 0
DWIDTH 9 0
BBX 7 10 1 -2
BITMAP
7C
80
80
70
0C
02
02
FC
08
18
ENDCHAR
STARTCHAR scedilla
ENCODING 351
SWIDTH 787 0
DWIDTH 9 0
BBX 7 10 1 -2
BITMAP
7C
80
80
70
0C
02
02
FC
08
18
ENDCHAR
STARTCHAR Scaron
ENCODING 352
SWIDTH 787 0
DWIDTH 9 0
BBX 7 11 1 0
BITMAP
64
18
00
7C
80
80
70
0C
02
02
FC
ENDCHAR
STARTCHAR scaron
ENCODING 353
SWIDTH 787 0
DWIDTH 9 0
BBX 7 11 1 0
BITMAP
64
18
00
7C
80
80
70
0C
02
02
FC
ENDCHAR
STARTCHAR Tcommaaccent
ENCODING 354
SWIDTH 708 0
DWIDTH 9 0
BBX 9 11 0 -3
BITMAP
FF80
0800
0800
0800
0800
0800
0800
0800
0000
0800
0800
ENDCHAR
STARTCHAR tcommaaccent
ENCODING 355
SWIDTH 708 0
DWIDTH 9 0
BBX 9 11 0 -3
BITMAP
FF80
0800
0800
0800
0800
0800
0800
0800
0000
0800
0800
ENDCHAR
STARTCHAR Tcaron
ENCODING 356
SWIDTH 708 0
DWIDTH 9 0
BBX 9 11 0 0
BITMAP
2200
1C00
0000
FF80
0800
0800
0800
0800
0800
0800
0800
ENDCHAR
STARTCHAR tcaron
ENCODING 357
SWIDTH 708 0
DWIDTH 9 0
BBX 9 11 0 0
BITMAP
2200
1C00
0000
FF80
0800
0800
0800
0800
0800
0800
0800
ENDCHAR
STARTCHAR Tbar
ENCODING 358
SWIDTH 708 0
DWIDTH 9 0
BBX 9 8 0 0
BITMAP
FF80
0800
0800
7F00
0800
0800
0800
0800
ENDCHAR
STARTCHAR tbar
ENCODING 359
SWIDTH 708 0
DWIDTH 9 0
BBX 9 8 0 0
BITMAP
FF80
0800
0800
7F00
0800
0800
0800
0800
ENDCHAR
STARTCHAR Utilde
ENCODING 360
SWIDTH 891 0
DWIDTH 11 0
BBX 8 11 1 0
BITMAP
14
2C
00
81
81
81
81
81
81
42
3C
ENDCHAR
STARTCHAR utilde
ENCODING 361
SWIDTH 931 0
DWIDTH 11 0
BBX 9 11 1 0
BITMAP
0A00
1600
0000
8080
8080
8080
8080
8080
8080
8380
7C80
ENDCHAR
STARTCHAR Umacron
ENCODING 362
SWIDTH 891 0
DWIDTH 11 0
BBX 8 10 1 0
BITMAP
1C
00
81
81
81
81
81
81
42
3C
ENDCHAR
STARTCHAR umacron
ENCODING 363
SWIDTH 931 0
DWIDTH 11 0
BBX 9 10 1 0
BITMAP
1C00
0000
8080
8080
8080
8080
8080
8080
8380
7C80
ENDCHAR
STARTCHAR Ubreve
ENCODING 364
SWIDTH 891 0
DWIDTH 11 0
BBX 8 11 1 0
BITMAP
24
18
00
81
81
81
81
81
81
42
3C
ENDCHAR
STARTCHAR ubreve
ENCODING 365
SWIDTH 931 0
DWIDTH 11 0
BBX 9 11 1 0
BITMAP
1A00
0E00
0000
8080
8080
8080
8080
8080
8080
8380
7C80
ENDCHAR
STARTCHAR Uring
ENCODING 366
SWIDTH 891 0
DWIDTH 11 0
BBX 8 11 1 0
BITMAP
1C
1C
00
81
81
81
81
81
81
42
3C
ENDCHAR
STARTCHAR uring
ENCODING 367
SWIDTH 931 0
DWIDTH 11 0
BBX 9 11 1 0
BITMAP
1C00
1C00
0000
8080
8080
8080
8080
8080
8080
8380
7C80
ENDCHAR
STARTCHAR Uhungarumlaut
ENCODING 368
SWIDTH 891 0
DWIDTH 11 0
BBX 8 11 1 0
BITMAP
0A
14
00
81
81
81
81
81
81
42
3C
ENDCHAR
STARTCHAR uhungarumlaut
ENCODING 369
SWIDTH 931 0
DWIDTH 11 0
BBX 9 11 1 0
BITMAP
0A00
1400
0000
8080
8080
8080
8080
8080
8080
8380
7C80
ENDCHAR
STARTCHAR Uogonek
ENCODING 370
SWIDTH 891 0
DWIDTH 11 0
BBX 8 10 1 -2
BITMAP
81
81
81
81
81
81
42
3C
10
1C
ENDCHAR
STARTCHAR uogonek
ENCODING 371
SWIDTH 931 0
DWIDTH 11 0
BBX 10 10 1 -2
BITMAP
8080
8080
8080
8080
8080
8080
8380
7C80
0100
01C0
ENDCHAR
STARTCHAR Wcircumflex
ENCODING 372
SWIDTH 1266 0
DWIDTH 15 0
BBX 13 11 1 0
BITMAP
0300
0480
0800
8208
8508
4510
4510
2890
28A0
28A0
1040
ENDCHAR
STARTCHAR wcircumflex
ENCODING 373
SWIDTH 1266 0
DWIDTH 15 0
BBX 13 11 1 0
BITMAP
0300
0480
0800
8208
8508
4510
4510
2890
28A0
28A0
1040
ENDCHAR
STARTCHAR Ycircumflex
ENCODING 374
SWIDTH 763 0
DWIDTH 9 0
BBX 7 11 1 0
BITMAP
18
24
40
82
44
44
28
10
10
10
10
ENDCHAR
STARTCHAR ycircumflex
ENCODING 375
SWIDTH 911 0
DWIDTH 11 0
BBX 9 11 1 0
BITMAP
0800
3600
0000
8080
8080
8080
4380
3C80
0080
0100
FE00
ENDCHAR
STARTCHAR Ydieresis
ENCODING 376
SWIDTH 763 0
DWIDTH 9 0
BBX 7 10 1 0
BITMAP
28
00
82
44
44
28
10
10
10
10
ENDCHAR
STARTCHAR Zacute
ENCODING 377
SWIDTH 728 0
DWIDTH 9 0
BBX 7 11 1 0
BITMAP
08
30
00
FE
04
08
10
20
20
40
FE
ENDCHAR
STARTCHAR zacute
ENCODING 378
SWIDTH 728 0
DWIDTH 9 0
BBX 7 11 1 0
BITMAP
08
30
00
FE
04
08
10
20
20
40
FE
ENDCHAR
STARTCHAR Zdotaccent
ENCODING 379
SWIDTH 728 0
DWIDTH 9 0
BBX 7 10 1 0
BITMAP
10
00
FE
04
08
10
20
20
40
FE
ENDCHAR
STARTCHAR zdotaccent
ENCODING 380
SWIDTH 728 0
DWIDTH 9 0
BBX 7 10 1 0
BITMAP
10
00
FE
04
08
10
20
20
40
FE
ENDCHAR
STARTCHAR Zcaron
ENCODING 381
SWIDTH 728 0
DWIDTH 9 0
BBX 7 11 1 0
BITMAP
44
38
00
FE
04
08
10
20
20
40
FE
ENDCHAR
STARTCHAR zcaron
ENCODING 382
SWIDTH 728 0
DWIDTH 9 0
BBX 7 11 1 0
BITMAP
44
38
00
FE
04
08
10
20
20
40
FE
ENDCHAR
STARTCHAR florin
ENCODING 402
SWIDTH 835 0
DWIDTH 10 0
BBX 9 8 1 0
BITMAP
0380
0400
0400
1F00
0800
0800
1000
E000
ENDCHAR
STARTCHAR AEacute
ENCODING 508
SWIDTH 1172 0
DWIDTH 14 0
BBX 13 11 0 0
BITMAP
0060
0080
0000
07F8
0A00
1200
13F8
2200
7E00
4200
83F8
ENDCHAR
STARTCHAR aeacute
ENCODING 509
SWIDTH 1551 0
DWIDTH 19 0
BBX 17 11 1 0
BITMAP
004000
018000
000000
7F3E00
00C100
008080
1FFF80
608000
808000
81C000
7E3F00
ENDCHAR
STARTCHAR Oslashacute
ENCODING 510
SWIDTH 983 0
DWIDTH 12 0
BBX 10 12 1 -1
BITMAP
0200
0C00
0080
3F00
4280
8240
8440
8840
9040
6080
3F00
4000
ENDCHAR
STARTCHAR oslashacute
ENCODING 511
SWIDTH 983 0
DWIDTH 12 0
BBX 10 12 1 -1
BITMAP
0200
0C00
0080
3F00
4280
8240
8440
8840
9040
6080
3F00
4000
ENDCHAR
STARTCHAR dotlessj
ENCODING 567
SWIDTH 590 0
DWIDTH 7 0
BBX 6 8 0 0
BITMAP
04
04
04
04
04
04
04
F8
ENDCHAR
STARTCHAR circumflex
ENCODING 710
SWIDTH 527 0
DWIDTH 6 0
BBX 5 2 1 7
BITMAP
20
D8
ENDCHAR
STARTCHAR caron
ENCODING 711
SWIDTH 527 0
DWIDTH 6 0
BBX 5 2 1 7
BITMAP
88
70
ENDCHAR
STARTCHAR breve
ENCODING 728
SWIDTH 527 0
DWIDTH 6 0
BBX 4 2 1 7
BITMAP
90
60
ENDCHAR
STARTCHAR dotaccent
ENCODING 729
SWIDTH 527 0
DWIDTH 6 0
BBX 1 1 3 7
BITMAP
80
ENDCHAR
STARTCHAR ring
ENCODING 730
SWIDTH 527 0
DWIDTH 6 0
BBX 3 2 2 7
BITMAP
E0
E0
ENDCHAR
STARTCHAR ogonek
ENCODING 731
SWIDTH 527 0
DWIDTH 6 0
BBX 3 2 2 -2
BITMAP
80
E0
ENDCHAR
STARTCHAR tilde
ENCODING 732
SWIDTH 527 0
DWIDTH 6 0
BBX 4 2 1 7
BITMAP
50
A0
ENDCHAR
STARTCHAR hungarumlaut
ENCODING 733
SWIDTH 527 0
DWIDTH 6 0
BBX 4 2 2 7
BITMAP
50
A0
ENDCHAR
STARTCHAR commaaccent
ENCODING 806
SWIDTH 527 0
DWIDTH 6 0
BBX 1 2 3 -3
BITMAP
80
80
ENDCHAR
STARTCHAR mu
ENCODING 956
SWIDTH 705 0
DWIDTH 8 0
BBX 7 8 0 -2
BITMAP
22
22
42
44
64
5C
40
80
ENDCHAR
STARTCHAR Wgrave
ENCODING 7808
SWIDTH 1266 0
DWIDTH 15 0
BBX 13 11 1 0
BITMAP
0400
0A00
0000
8208
8508
4510
4510
2890
28A0
28A0
1040
ENDCHAR
STARTCHAR wgrave
ENCODING 7809
SWIDTH 1266 0
DWIDTH 15 0
BBX 13 11 1 0
BITMAP
0400
0A00
0000
8208
8508
4510
4510
2890
28A0
28A0
1040
ENDCHAR
STARTCHAR Wacute
ENCODING 7810
SWIDTH 1266 0
DWIDTH 15 0
BBX 13 11 1 0
BITMAP
0100
0600
0000
8208
8508
4510
4510
2890
28A0
28A0
1040
ENDCHAR
STARTCHAR wacute
ENCODING 7811
SWIDTH 1266 0
DWIDTH 15 0
BBX 13 11 1 0
BITMAP
0100
0600
0000
8208
8508
4510
4510
2890
28A0
28A0
1040
ENDCHAR
STARTCHAR Wdieresis
ENCODING 7812
SWIDTH 1266 0
DWIDTH 15 0
BBX 13 10 1 0
BITMAP
0500
0000
8208
8508
4510
4510
2890
28A0
28A0
1040
ENDCHAR
STARTCHAR wdieresis
ENCODING 7813
SWIDTH 1266 0
DWIDTH 15 0
BBX 13 10 1 0
BITMAP
0500
0000
8208
8508
4510
4510
2890
28A0
28A0
1040
ENDCHAR
STARTCHAR Ygrave
ENCODING 7922
SWIDTH 763 0
DWIDTH 9 0
BBX 7 11 1 0
BITMAP
20
50
00
82
44
44
28
10
10
10
10
ENDCHAR
STARTCHAR ygrave
ENCODING 7923
SWIDTH 911 0
DWIDTH 11 0
BBX 9 11 1 0
BITMAP
2000
1800
0000
8080
8080
8080
4380
3C80
0080
0100
FE00
ENDCHAR
STARTCHAR endash
ENCODING 8211
SWIDTH 419 0
DWIDTH 5 0
BBX 5 1 0 4
BITMAP
F8
ENDCHAR
STARTCHAR emdash
ENCODING 8212
SWIDTH 1000 0
DWIDTH 12 0
BBX 12 1 0 4
BITMAP
FFF0
ENDCHAR
STARTCHAR quoteleft
ENCODING 8216
SWIDTH 163 0
DWIDTH 2 0
BBX 1 2 0 6
BITMAP
80
80
ENDCHAR
STARTCHAR quoteright
ENCODING 8217
SWIDTH 163 0
DWIDTH 2 0
BBX 1 2 0 6
BITMAP
80
80
ENDCHAR
STARTCHAR quotesinglbase
ENCODING 8218
SWIDTH 163 0
DWIDTH 2 0
BBX 1 2 0 -1
BITMAP
80
80
ENDCHAR
STARTCHAR quotedblleft
ENCODING 8220
SWIDTH 303 0
DWIDTH 4 0
BBX 3 2 0 6
BITMAP
A0
A0
ENDCHAR
STARTCHAR quotedblright
ENCODING 8221
SWIDTH 303 0
DWIDTH 4 0
BBX 3 2 0 6
BITMAP
A0
A0
ENDCHAR
STARTCHAR quotedblbase
ENCODING 8222
SWIDTH 303 0
DWIDTH 4 0
BBX 3 2 0 -1
BITMAP
A0
A0
ENDCHAR
STARTCHAR dagger
ENCODING 8224
SWIDTH 500 0
DWIDTH 6 0
BBX 5 8 1 0
BITMAP
20
20
F8
20
20
20
20
20
ENDCHAR
STARTCHAR daggerdbl
ENCODING 8225
SWIDTH 500 0
DWIDTH 6 0
BBX 5 8 1 0
BITMAP
20
20
F8
20
20
F8
20
20
ENDCHAR
STARTCHAR bullet
ENCODING 8226
SWIDTH 352 0
DWIDTH 4 0
BBX 2 2 1 3
BITMAP
C0
C0
ENDCHAR
STARTCHAR ellipsis
ENCODING 8230
SWIDTH 555 0
DWIDTH 7 0
BBX 5 1 1 0
BITMAP
A8
ENDCHAR
STARTCHAR perthousand
ENCODING 8240
SWIDTH 1401 0
DWIDTH 17 0
BBX 16 8 0 0
BITMAP
7080
8900
8A00
7400
05CE
0A31
1231
21CE
ENDCHAR
STARTCHAR guilsinglleft
ENCODING 8249
SWIDTH 257 0
DWIDTH 3 0
BBX 2 5 0 2
BITMAP
40
40
80
40
40
ENDCHAR
STARTCHAR guilsinglright
ENCODING 8250
SWIDTH 257 0
DWIDTH 3 0
BBX 2 5 1 2
BITMAP
80
80
40
80
80
ENDCHAR
STARTCHAR fraction
ENCODING 8260
SWIDTH 200 0
DWIDTH 2 0
BBX 7 8 -2 0
BITMAP
02
04
08
10
10
20
40
80
ENDCHAR
STARTCHAR Euro
ENCODING 8364
SWIDTH 833 0
DWIDTH 10 0
BBX 9 8 0 0
BITMAP
1F00
2080
4000
FE00
4000
FC00
6080
1F00
ENDCHAR
STARTCHAR trademark
ENCODING 8482
SWIDTH 773 0
DWIDTH 9 0
BBX 7 4 1 4
BITMAP
F2
5E
5E
5A
ENDCHAR
STARTCHAR partialdiff
ENCODING 8706
SWIDTH 790 0
DWIDTH 9 0
BBX 8 8 1 0
BITMAP
3C
02
01
3D
43
81
82
7C
ENDCHAR
STARTCHAR minus
ENCODING 8722
SWIDTH 634 0
DWIDTH 8 0
BBX 6 1 1 4
BITMAP
FC
ENDCHAR
STARTCHAR uni2215
ENCODING 8725
SWIDTH 200 0
DWIDTH 2 0
BBX 7 8 -2 0
BITMAP
02
04
08
10
10
20
40
80
ENDCHAR
STARTCHAR approxequal
ENCODING 8776
SWIDTH 634 0
DWIDTH 8 0
BBX 6 4 1 3
BITMAP
64
98
64
98
ENDCHAR
STARTCHAR notequal
ENCODING 8800
SWIDTH 634 0
DWIDTH 8 0
BBX 6 7 1 1
BITMAP
10
10
FC
20
FC
40
40
ENDCHAR
STARTCHAR lessequal
ENCODING 8804
SWIDTH 634 0
DWIDTH 8 0
BBX 6 6 1 1
BITMAP
0C
70
80
70
0C
FC
ENDCHAR
STARTCHAR greaterequal
ENCODING 8805
SWIDTH 634 0
DWIDTH 8 0
BBX 6 6 1 1
BITMAP
C0
38
04
38
C0
FC
ENDCHAR
STARTCHAR fi
ENCODING 64257
SWIDTH 1104 0
DWIDTH 13 0
BBX 11 8 1 0
BITMAP
7F20
8020
8020
8020
FF20
8020
8020
8020
ENDCHAR
STARTCHAR fl
ENCODING 64258
SWIDTH 1527 0
DWIDTH 18 0
BBX 17 8 1 0
BITMAP
7F2000
802000
802000
802000
FF2000
802000
802000
801F80
ENDCHAR
STARTCHAR .notdef
ENCODING -1
SWIDTH 1000 0
DWIDTH 12 0
BBX 1 1 0 0
BITMAP
00
ENDCHAR
ENDFONT
